<mxfile host="app.diagrams.net" modified="2023-04-27T14:41:00.375Z" agent="Mozilla/5.0 (X11; Linux x86_64) AppleWebKit/537.36 (KHTML, like Gecko) Chrome/110.0.0.0 Safari/537.36" version="21.2.1" etag="tmAQepr4oEXqui8tz4OL" type="github">
  <diagram name="Страница 1" id="eKpfeXVjbQMpR1A9M_WF">
    <mxGraphModel>
      <root>
        <mxCell id="0" />
        <mxCell id="1" parent="0" />
      </root>
    </mxGraphModel>
  </diagram>
</mxfile>
